<?xml version="1.0" encoding="UTF-8" standalone="no"?>
<!-- Created with Inkscape (http://www.inkscape.org/) -->

<svg
   width="77mm"
   height="126.95522mm"
   viewBox="0 0 77 126.95522"
   version="1.1"
   id="svg5"
   xml:space="preserve"
   inkscape:version="1.2.1 (9c6d41e, 2022-07-14)"
   sodipodi:docname="background-mobile.svg"
   preserveAspectRatio="none"
   xmlns:inkscape="http://www.inkscape.org/namespaces/inkscape"
   xmlns:sodipodi="http://sodipodi.sourceforge.net/DTD/sodipodi-0.dtd"
   xmlns="http://www.w3.org/2000/svg"
   xmlns:svg="http://www.w3.org/2000/svg"><sodipodi:namedview
     id="namedview7"
     pagecolor="#1e1e1e"
     bordercolor="#000000"
     borderopacity="0.25"
     inkscape:showpageshadow="2"
     inkscape:pageopacity="0"
     inkscape:pagecheckerboard="0"
     inkscape:deskcolor="#d1d1d1"
     inkscape:document-units="mm"
     showgrid="false"
     inkscape:zoom="1.2938725"
     inkscape:cx="17.389658"
     inkscape:cy="184.71681"
     inkscape:window-width="2516"
     inkscape:window-height="1278"
     inkscape:window-x="1728"
     inkscape:window-y="25"
     inkscape:window-maximized="0"
     inkscape:current-layer="layer1" /><defs
     id="defs2"><filter
       inkscape:collect="always"
       style="color-interpolation-filters:sRGB"
       id="filter951"
       x="-0.023353165"
       y="-0.031996595"
       width="1.0467063"
       height="1.0639932"><feGaussianBlur
         inkscape:collect="always"
         stdDeviation="0.86763256"
         id="feGaussianBlur953" /></filter><filter
       inkscape:collect="always"
       style="color-interpolation-filters:sRGB"
       id="filter959"
       x="-0.025167417"
       y="-0.022075007"
       width="1.0503348"
       height="1.04415"><feGaussianBlur
         inkscape:collect="always"
         stdDeviation="0.99498451"
         id="feGaussianBlur961" /></filter></defs><g
     inkscape:label="Layer 1"
     inkscape:groupmode="layer"
     id="layer1"
     transform="translate(-15.327168,-56.970787)"><rect
       style="fill:#2f1c40;fill-opacity:1;stroke-width:0.946869"
       id="rect3421"
       width="77.660156"
       height="126.95522"
       x="15.327168"
       y="56.970787" /><path
       style="fill:#000000;fill-opacity:0.237952;stroke-width:1.3;filter:url(#filter951)"
       d="m 15.327168,121.99844 c 0,0 17.9264,1.7231 24.538741,-14.72324 7.258466,-18.053403 -4.38445,-26.789846 9.406516,-34.558723 12.678552,-7.14222 16.768136,4.29428 35.990156,3.271832 C 104.4846,74.965861 105.09806,59.83364 104.2801,56.970787 H 15.327168 Z"
       id="path949"
       sodipodi:nodetypes="csssccc" /><path
       style="fill:#42164b;fill-opacity:1;stroke-width:1.3"
       d="M 92.327168,183.92601 V 62.050268 c -5.11224,0.817958 -15.633356,5.605537 -21.880366,21.675886 -6.24701,16.07035 6.33917,43.556266 -5.31673,59.301956 -10.41654,14.07148 -36.39913,4.90774 -46.01013,2.04489 -9.61101,-2.86285 -27.230569,-5.09007 -39.670959,-1.84041 -12.440393,3.24967 -31.491393,11.24693 -36.808113,40.69342 z"
       id="path1726"
       sodipodi:nodetypes="cczczzcc" /><path
       style="fill:#0981a6;fill-opacity:1;stroke-width:1.3"
       d="m 15.327168,119.34008 c 0,0 15.096463,2.41802 22.902825,-13.49631 C 45.07948,91.88016 35.527196,78.356149 48.863446,71.080561 62.511044,63.635118 67.676477,74.556883 84.853602,74.352393 104.10143,74.123252 103.05317,59.83364 102.23521,56.970787 H 15.327168 Z"
       id="path414"
       sodipodi:nodetypes="csssccc" /><path
       style="fill:#000000;fill-opacity:0.298193;stroke-width:1.3;filter:url(#filter959)"
       d="m -4.9439047,183.92601 c 0,0 3.88529,-11.04243 17.9950687,-14.72324 14.10977,-3.68082 31.90035,3.27183 41.10238,2.45387 9.20203,-0.81796 27.401591,-8.79305 24.743231,-25.56119 -2.65836,-16.76814 -6.81686,-33.19229 -4.08979,-48.872988 C 77.260855,83.11268 86.667378,76.160038 89.939207,75.751057 V 183.92601 Z"
       id="path957"
       sodipodi:nodetypes="cssssccc" /><path
       style="fill:#67019d;fill-opacity:0.99723;stroke-width:1.3"
       d="m -0.920027,183.92601 c 0,0 3.06733,-10.22447 17.17711,-13.90528 14.10977,-3.68082 31.90035,3.27183 41.10238,2.45387 9.20203,-0.81796 27.40159,-8.79305 24.74323,-25.56119 -2.65836,-16.76814 -6.81686,-33.19229 -4.08979,-48.87299 2.45387,-14.109782 11.042435,-19.835487 14.314265,-20.244468 V 183.92601 Z"
       id="path955"
       sodipodi:nodetypes="cssssccc" /></g></svg>
